<svg width="243" height="221" viewBox="0 0 243 221" fill="none" xmlns="http://www.w3.org/2000/svg">
<g filter="url(#filter0_d_322_180)">
<rect x="42.3574" y="42.7607" width="26.5468" height="21.2452" rx="0.818548" fill="white"/>
</g>
<g filter="url(#filter1_dd_322_180)">
<rect x="9" y="8" width="224.225" height="201.065" rx="13.0968" fill="white"/>
<rect x="10" y="9" width="222.225" height="199.065" rx="12.0968" stroke="#2597D3" stroke-width="2"/>
</g>
<path d="M62.9817 177.07L66.5657 167.27H68.7077L72.2777 177.07H70.2757L67.6297 169.426L64.9697 177.07H62.9817ZM64.5637 174.844L65.0677 173.374H70.0517L70.5417 174.844H64.5637ZM72.1935 180.15V178.54H72.7675C73.0661 178.54 73.2761 178.479 73.3975 178.358C73.5281 178.236 73.5935 178.04 73.5935 177.77V170.014H75.4835V177.756C75.4835 178.334 75.3808 178.796 75.1755 179.142C74.9795 179.496 74.6995 179.753 74.3355 179.912C73.9715 180.07 73.5421 180.15 73.0475 180.15H72.1935ZM74.5455 169.048C74.2001 169.048 73.9201 168.95 73.7055 168.754C73.4908 168.548 73.3835 168.292 73.3835 167.984C73.3835 167.676 73.4908 167.424 73.7055 167.228C73.9201 167.022 74.2001 166.92 74.5455 166.92C74.8908 166.92 75.1708 167.022 75.3855 167.228C75.6001 167.424 75.7075 167.676 75.7075 167.984C75.7075 168.292 75.6001 168.548 75.3855 168.754C75.1708 168.95 74.8908 169.048 74.5455 169.048ZM80.6973 177.238C80.0253 177.238 79.4186 177.084 78.8773 176.776C78.3453 176.458 77.9206 176.024 77.6033 175.474C77.2953 174.914 77.1413 174.274 77.1413 173.556C77.1413 172.818 77.2953 172.174 77.6033 171.624C77.9206 171.064 78.3499 170.63 78.8913 170.322C79.4326 170.004 80.0393 169.846 80.7113 169.846C81.3926 169.846 81.9993 170.004 82.5313 170.322C83.0726 170.63 83.4973 171.064 83.8053 171.624C84.1226 172.174 84.2813 172.814 84.2813 173.542C84.2813 174.27 84.1226 174.914 83.8053 175.474C83.4973 176.024 83.0726 176.458 82.5313 176.776C81.9899 177.084 81.3786 177.238 80.6973 177.238ZM80.6973 175.6C81.0146 175.6 81.2946 175.525 81.5373 175.376C81.7893 175.226 81.9853 174.998 82.1253 174.69C82.2746 174.382 82.3493 173.999 82.3493 173.542C82.3493 173.084 82.2746 172.706 82.1253 172.408C81.9853 172.1 81.7893 171.871 81.5373 171.722C81.2946 171.563 81.0193 171.484 80.7113 171.484C80.4126 171.484 80.1373 171.563 79.8853 171.722C79.6333 171.871 79.4326 172.1 79.2833 172.408C79.1433 172.706 79.0733 173.084 79.0733 173.542C79.0733 173.999 79.1433 174.382 79.2833 174.69C79.4326 174.998 79.6286 175.226 79.8713 175.376C80.1233 175.525 80.3986 175.6 80.6973 175.6ZM88.5422 177.238C87.9729 177.238 87.4829 177.121 87.0722 176.888C86.6709 176.645 86.3629 176.295 86.1482 175.838C85.9335 175.371 85.8262 174.797 85.8262 174.116V170.014H87.7162V173.92C87.7162 174.489 87.8329 174.918 88.0662 175.208C88.3089 175.497 88.6775 175.642 89.1722 175.642C89.4895 175.642 89.7695 175.572 90.0122 175.432C90.2549 175.282 90.4462 175.072 90.5862 174.802C90.7355 174.522 90.8102 174.181 90.8102 173.78V170.014H92.6862V177.07H91.0342L90.8802 175.922C90.6749 176.323 90.3715 176.645 89.9702 176.888C89.5689 177.121 89.0929 177.238 88.5422 177.238ZM97.7151 177.07C97.2205 177.07 96.7865 176.995 96.4131 176.846C96.0491 176.687 95.7645 176.43 95.5591 176.076C95.3538 175.712 95.2511 175.217 95.2511 174.592V171.596H94.0471V170.014H95.2511L95.4611 168.096H97.1411V170.014H99.0031V171.596H97.1411V174.62C97.1411 174.937 97.2111 175.156 97.3511 175.278C97.4911 175.399 97.7291 175.46 98.0651 175.46H98.9891V177.07H97.7151ZM103.804 177.238C103.095 177.238 102.465 177.088 101.914 176.79C101.373 176.482 100.948 176.057 100.64 175.516C100.341 174.965 100.192 174.33 100.192 173.612C100.192 172.874 100.341 172.226 100.64 171.666C100.948 171.096 101.373 170.653 101.914 170.336C102.455 170.009 103.085 169.846 103.804 169.846C104.504 169.846 105.115 170 105.638 170.308C106.161 170.616 106.567 171.031 106.856 171.554C107.145 172.076 107.29 172.669 107.29 173.332C107.29 173.425 107.29 173.532 107.29 173.654C107.29 173.766 107.281 173.882 107.262 174.004H101.536V172.856H105.386C105.358 172.398 105.195 172.039 104.896 171.778C104.607 171.516 104.243 171.386 103.804 171.386C103.487 171.386 103.193 171.46 102.922 171.61C102.651 171.75 102.437 171.969 102.278 172.268C102.129 172.566 102.054 172.944 102.054 173.402V173.808C102.054 174.19 102.124 174.526 102.264 174.816C102.413 175.096 102.619 175.315 102.88 175.474C103.141 175.623 103.445 175.698 103.79 175.698C104.135 175.698 104.42 175.623 104.644 175.474C104.877 175.324 105.05 175.133 105.162 174.9H107.094C106.963 175.338 106.744 175.735 106.436 176.09C106.128 176.444 105.75 176.724 105.302 176.93C104.854 177.135 104.355 177.238 103.804 177.238ZM108.838 177.07V170.014H110.518L110.7 171.316C110.868 171.008 111.078 170.746 111.33 170.532C111.591 170.317 111.885 170.149 112.212 170.028C112.548 169.906 112.917 169.846 113.318 169.846V171.848H112.674C112.394 171.848 112.133 171.88 111.89 171.946C111.657 172.011 111.451 172.118 111.274 172.268C111.097 172.408 110.961 172.604 110.868 172.856C110.775 173.108 110.728 173.425 110.728 173.808V177.07H108.838ZM120.493 177.238C119.924 177.238 119.434 177.121 119.023 176.888C118.622 176.645 118.314 176.295 118.099 175.838C117.885 175.371 117.777 174.797 117.777 174.116V170.014H119.667V173.92C119.667 174.489 119.784 174.918 120.017 175.208C120.26 175.497 120.629 175.642 121.123 175.642C121.441 175.642 121.721 175.572 121.963 175.432C122.206 175.282 122.397 175.072 122.537 174.802C122.687 174.522 122.761 174.181 122.761 173.78V170.014H124.637V177.07H122.985L122.831 175.922C122.626 176.323 122.323 176.645 121.921 176.888C121.52 177.121 121.044 177.238 120.493 177.238ZM126.488 177.07V170.014H128.154L128.294 171.162C128.509 170.77 128.812 170.452 129.204 170.21C129.606 169.967 130.082 169.846 130.632 169.846C131.22 169.846 131.715 169.967 132.116 170.21C132.518 170.452 132.821 170.807 133.026 171.274C133.241 171.74 133.348 172.314 133.348 172.996V177.07H131.472V173.178C131.472 172.618 131.351 172.188 131.108 171.89C130.875 171.591 130.511 171.442 130.016 171.442C129.699 171.442 129.414 171.516 129.162 171.666C128.92 171.815 128.728 172.03 128.588 172.31C128.448 172.58 128.378 172.912 128.378 173.304V177.07H126.488ZM138.424 180.15V170.014H140.104L140.314 170.994C140.463 170.788 140.641 170.602 140.846 170.434C141.051 170.256 141.294 170.116 141.574 170.014C141.863 169.902 142.199 169.846 142.582 169.846C143.245 169.846 143.828 170.009 144.332 170.336C144.836 170.662 145.233 171.106 145.522 171.666C145.821 172.216 145.97 172.846 145.97 173.556C145.97 174.265 145.821 174.9 145.522 175.46C145.223 176.01 144.822 176.444 144.318 176.762C143.814 177.079 143.24 177.238 142.596 177.238C142.073 177.238 141.621 177.144 141.238 176.958C140.865 176.762 140.557 176.496 140.314 176.16V180.15H138.424ZM142.148 175.586C142.521 175.586 142.848 175.502 143.128 175.334C143.417 175.166 143.641 174.928 143.8 174.62C143.959 174.312 144.038 173.957 144.038 173.556C144.038 173.154 143.959 172.8 143.8 172.492C143.641 172.174 143.417 171.932 143.128 171.764C142.848 171.586 142.521 171.498 142.148 171.498C141.784 171.498 141.457 171.586 141.168 171.764C140.888 171.932 140.664 172.17 140.496 172.478C140.337 172.786 140.258 173.14 140.258 173.542C140.258 173.943 140.337 174.302 140.496 174.62C140.664 174.928 140.888 175.166 141.168 175.334C141.457 175.502 141.784 175.586 142.148 175.586ZM147.598 177.07V170.014H149.278L149.46 171.316C149.628 171.008 149.838 170.746 150.09 170.532C150.351 170.317 150.645 170.149 150.972 170.028C151.308 169.906 151.676 169.846 152.078 169.846V171.848H151.434C151.154 171.848 150.892 171.88 150.65 171.946C150.416 172.011 150.211 172.118 150.034 172.268C149.856 172.408 149.721 172.604 149.628 172.856C149.534 173.108 149.488 173.425 149.488 173.808V177.07H147.598ZM156.549 177.238C155.877 177.238 155.27 177.084 154.729 176.776C154.197 176.458 153.772 176.024 153.455 175.474C153.147 174.914 152.993 174.274 152.993 173.556C152.993 172.818 153.147 172.174 153.455 171.624C153.772 171.064 154.201 170.63 154.743 170.322C155.284 170.004 155.891 169.846 156.563 169.846C157.244 169.846 157.851 170.004 158.383 170.322C158.924 170.63 159.349 171.064 159.657 171.624C159.974 172.174 160.133 172.814 160.133 173.542C160.133 174.27 159.974 174.914 159.657 175.474C159.349 176.024 158.924 176.458 158.383 176.776C157.841 177.084 157.23 177.238 156.549 177.238ZM156.549 175.6C156.866 175.6 157.146 175.525 157.389 175.376C157.641 175.226 157.837 174.998 157.977 174.69C158.126 174.382 158.201 173.999 158.201 173.542C158.201 173.084 158.126 172.706 157.977 172.408C157.837 172.1 157.641 171.871 157.389 171.722C157.146 171.563 156.871 171.484 156.563 171.484C156.264 171.484 155.989 171.563 155.737 171.722C155.485 171.871 155.284 172.1 155.135 172.408C154.995 172.706 154.925 173.084 154.925 173.542C154.925 173.999 154.995 174.382 155.135 174.69C155.284 174.998 155.48 175.226 155.723 175.376C155.975 175.525 156.25 175.6 156.549 175.6ZM160.432 180.15V178.54H161.006C161.304 178.54 161.514 178.479 161.636 178.358C161.766 178.236 161.832 178.04 161.832 177.77V170.014H163.722V177.756C163.722 178.334 163.619 178.796 163.414 179.142C163.218 179.496 162.938 179.753 162.574 179.912C162.21 180.07 161.78 180.15 161.286 180.15H160.432ZM162.784 169.048C162.438 169.048 162.158 168.95 161.944 168.754C161.729 168.548 161.622 168.292 161.622 167.984C161.622 167.676 161.729 167.424 161.944 167.228C162.158 167.022 162.438 166.92 162.784 166.92C163.129 166.92 163.409 167.022 163.624 167.228C163.838 167.424 163.946 167.676 163.946 167.984C163.946 168.292 163.838 168.548 163.624 168.754C163.409 168.95 163.129 169.048 162.784 169.048ZM168.992 177.238C168.282 177.238 167.652 177.088 167.102 176.79C166.56 176.482 166.136 176.057 165.828 175.516C165.529 174.965 165.38 174.33 165.38 173.612C165.38 172.874 165.529 172.226 165.828 171.666C166.136 171.096 166.56 170.653 167.102 170.336C167.643 170.009 168.273 169.846 168.992 169.846C169.692 169.846 170.303 170 170.826 170.308C171.348 170.616 171.754 171.031 172.044 171.554C172.333 172.076 172.478 172.669 172.478 173.332C172.478 173.425 172.478 173.532 172.478 173.654C172.478 173.766 172.468 173.882 172.45 174.004H166.724V172.856H170.574C170.546 172.398 170.382 172.039 170.084 171.778C169.794 171.516 169.43 171.386 168.992 171.386C168.674 171.386 168.38 171.46 168.11 171.61C167.839 171.75 167.624 171.969 167.466 172.268C167.316 172.566 167.242 172.944 167.242 173.402V173.808C167.242 174.19 167.312 174.526 167.452 174.816C167.601 175.096 167.806 175.315 168.068 175.474C168.329 175.623 168.632 175.698 168.978 175.698C169.323 175.698 169.608 175.623 169.832 175.474C170.065 175.324 170.238 175.133 170.35 174.9H172.282C172.151 175.338 171.932 175.735 171.624 176.09C171.316 176.444 170.938 176.724 170.49 176.93C170.042 177.135 169.542 177.238 168.992 177.238ZM177.108 177.07C176.613 177.07 176.179 176.995 175.806 176.846C175.442 176.687 175.157 176.43 174.952 176.076C174.746 175.712 174.644 175.217 174.644 174.592V171.596H173.44V170.014H174.644L174.854 168.096H176.534V170.014H178.396V171.596H176.534V174.62C176.534 174.937 176.604 175.156 176.744 175.278C176.884 175.399 177.122 175.46 177.458 175.46H178.382V177.07H177.108ZM85.0909 193.07V186.014H86.9809V193.07H85.0909ZM86.0429 185.048C85.7069 185.048 85.4269 184.95 85.2029 184.754C84.9882 184.548 84.8809 184.292 84.8809 183.984C84.8809 183.676 84.9882 183.424 85.2029 183.228C85.4269 183.022 85.7069 182.92 86.0429 182.92C86.3882 182.92 86.6682 183.022 86.8829 183.228C87.1069 183.424 87.2189 183.676 87.2189 183.984C87.2189 184.292 87.1069 184.548 86.8829 184.754C86.6682 184.95 86.3882 185.048 86.0429 185.048ZM88.8907 193.07V186.014H90.5567L90.7107 186.952C90.9347 186.616 91.2287 186.35 91.5927 186.154C91.966 185.948 92.3907 185.846 92.8667 185.846C93.2213 185.846 93.5387 185.892 93.8187 185.986C94.0987 186.079 94.346 186.214 94.5607 186.392C94.7847 186.569 94.9667 186.793 95.1067 187.064C95.368 186.681 95.7087 186.382 96.1287 186.168C96.5487 185.953 97.006 185.846 97.5007 185.846C98.1167 185.846 98.63 185.972 99.0407 186.224C99.4513 186.466 99.7593 186.821 99.9647 187.288C100.179 187.754 100.287 188.328 100.287 189.01V193.07H98.4107V189.178C98.4107 188.618 98.2987 188.188 98.0747 187.89C97.86 187.591 97.524 187.442 97.0667 187.442C96.768 187.442 96.502 187.516 96.2687 187.666C96.0353 187.815 95.8533 188.03 95.7227 188.31C95.6013 188.59 95.5407 188.926 95.5407 189.318V193.07H93.6507V189.178C93.6507 188.618 93.5387 188.188 93.3147 187.89C93.0907 187.591 92.7453 187.442 92.2787 187.442C91.9893 187.442 91.728 187.516 91.4947 187.666C91.2707 187.815 91.0933 188.03 90.9627 188.31C90.8413 188.59 90.7807 188.926 90.7807 189.318V193.07H88.8907ZM102.07 193.07V186.014H103.736L103.89 186.952C104.114 186.616 104.408 186.35 104.772 186.154C105.146 185.948 105.57 185.846 106.046 185.846C106.401 185.846 106.718 185.892 106.998 185.986C107.278 186.079 107.526 186.214 107.74 186.392C107.964 186.569 108.146 186.793 108.286 187.064C108.548 186.681 108.888 186.382 109.308 186.168C109.728 185.953 110.186 185.846 110.68 185.846C111.296 185.846 111.81 185.972 112.22 186.224C112.631 186.466 112.939 186.821 113.144 187.288C113.359 187.754 113.466 188.328 113.466 189.01V193.07H111.59V189.178C111.59 188.618 111.478 188.188 111.254 187.89C111.04 187.591 110.704 187.442 110.246 187.442C109.948 187.442 109.682 187.516 109.448 187.666C109.215 187.815 109.033 188.03 108.902 188.31C108.781 188.59 108.72 188.926 108.72 189.318V193.07H106.83V189.178C106.83 188.618 106.718 188.188 106.494 187.89C106.27 187.591 105.925 187.442 105.458 187.442C105.169 187.442 104.908 187.516 104.674 187.666C104.45 187.815 104.273 188.03 104.142 188.31C104.021 188.59 103.96 188.926 103.96 189.318V193.07H102.07ZM118.582 193.238C117.91 193.238 117.303 193.084 116.762 192.776C116.23 192.458 115.805 192.024 115.488 191.474C115.18 190.914 115.026 190.274 115.026 189.556C115.026 188.818 115.18 188.174 115.488 187.624C115.805 187.064 116.235 186.63 116.776 186.322C117.317 186.004 117.924 185.846 118.596 185.846C119.277 185.846 119.884 186.004 120.416 186.322C120.957 186.63 121.382 187.064 121.69 187.624C122.007 188.174 122.166 188.814 122.166 189.542C122.166 190.27 122.007 190.914 121.69 191.474C121.382 192.024 120.957 192.458 120.416 192.776C119.875 193.084 119.263 193.238 118.582 193.238ZM118.582 191.6C118.899 191.6 119.179 191.525 119.422 191.376C119.674 191.226 119.87 190.998 120.01 190.69C120.159 190.382 120.234 189.999 120.234 189.542C120.234 189.084 120.159 188.706 120.01 188.408C119.87 188.1 119.674 187.871 119.422 187.722C119.179 187.563 118.904 187.484 118.596 187.484C118.297 187.484 118.022 187.563 117.77 187.722C117.518 187.871 117.317 188.1 117.168 188.408C117.028 188.706 116.958 189.084 116.958 189.542C116.958 189.999 117.028 190.382 117.168 190.69C117.317 190.998 117.513 191.226 117.756 191.376C118.008 191.525 118.283 191.6 118.582 191.6ZM127.967 193.238C127.603 193.238 127.276 193.191 126.987 193.098C126.707 193.004 126.455 192.878 126.231 192.72C126.016 192.552 125.834 192.365 125.685 192.16L125.475 193.07H123.795V182.99H125.685V186.994C125.909 186.667 126.203 186.396 126.567 186.182C126.94 185.958 127.402 185.846 127.953 185.846C128.606 185.846 129.185 186.009 129.689 186.336C130.202 186.653 130.604 187.092 130.893 187.652C131.192 188.202 131.341 188.837 131.341 189.556C131.341 190.256 131.192 190.886 130.893 191.446C130.604 192.006 130.207 192.444 129.703 192.762C129.199 193.079 128.62 193.238 127.967 193.238ZM127.519 191.586C127.892 191.586 128.219 191.502 128.499 191.334C128.788 191.156 129.012 190.918 129.171 190.62C129.33 190.312 129.409 189.957 129.409 189.556C129.409 189.154 129.33 188.8 129.171 188.492C129.012 188.174 128.788 187.932 128.499 187.764C128.219 187.586 127.892 187.498 127.519 187.498C127.155 187.498 126.828 187.586 126.539 187.764C126.259 187.932 126.035 188.17 125.867 188.478C125.708 188.786 125.629 189.14 125.629 189.542C125.629 189.943 125.708 190.302 125.867 190.62C126.035 190.928 126.259 191.166 126.539 191.334C126.828 191.502 127.155 191.586 127.519 191.586ZM133.011 193.07V186.014H134.901V193.07H133.011ZM133.963 185.048C133.627 185.048 133.347 184.95 133.123 184.754C132.908 184.548 132.801 184.292 132.801 183.984C132.801 183.676 132.908 183.424 133.123 183.228C133.347 183.022 133.627 182.92 133.963 182.92C134.308 182.92 134.588 183.022 134.803 183.228C135.027 183.424 135.139 183.676 135.139 183.984C135.139 184.292 135.027 184.548 134.803 184.754C134.588 184.95 134.308 185.048 133.963 185.048ZM136.811 193.07V182.99H138.701V193.07H136.811ZM140.585 193.07V186.014H142.475V193.07H140.585ZM141.537 185.048C141.201 185.048 140.921 184.95 140.697 184.754C140.482 184.548 140.375 184.292 140.375 183.984C140.375 183.676 140.482 183.424 140.697 183.228C140.921 183.022 141.201 182.92 141.537 182.92C141.882 182.92 142.162 183.022 142.377 183.228C142.601 183.424 142.713 183.676 142.713 183.984C142.713 184.292 142.601 184.548 142.377 184.754C142.162 184.95 141.882 185.048 141.537 185.048ZM147.773 193.238C147.063 193.238 146.433 193.088 145.883 192.79C145.341 192.482 144.917 192.057 144.609 191.516C144.31 190.965 144.161 190.33 144.161 189.612C144.161 188.874 144.31 188.226 144.609 187.666C144.917 187.096 145.341 186.653 145.883 186.336C146.424 186.009 147.054 185.846 147.773 185.846C148.473 185.846 149.084 186 149.607 186.308C150.129 186.616 150.535 187.031 150.825 187.554C151.114 188.076 151.259 188.669 151.259 189.332C151.259 189.425 151.259 189.532 151.259 189.654C151.259 189.766 151.249 189.882 151.231 190.004H145.505V188.856H149.355C149.327 188.398 149.163 188.039 148.865 187.778C148.575 187.516 148.211 187.386 147.773 187.386C147.455 187.386 147.161 187.46 146.891 187.61C146.62 187.75 146.405 187.969 146.247 188.268C146.097 188.566 146.023 188.944 146.023 189.402V189.808C146.023 190.19 146.093 190.526 146.233 190.816C146.382 191.096 146.587 191.315 146.849 191.474C147.11 191.623 147.413 191.698 147.759 191.698C148.104 191.698 148.389 191.623 148.613 191.474C148.846 191.324 149.019 191.133 149.131 190.9H151.063C150.932 191.338 150.713 191.735 150.405 192.09C150.097 192.444 149.719 192.724 149.271 192.93C148.823 193.135 148.323 193.238 147.773 193.238ZM152.807 193.07V186.014H154.487L154.669 187.316C154.837 187.008 155.047 186.746 155.299 186.532C155.56 186.317 155.854 186.149 156.181 186.028C156.517 185.906 156.885 185.846 157.287 185.846V187.848H156.643C156.363 187.848 156.101 187.88 155.859 187.946C155.625 188.011 155.42 188.118 155.243 188.268C155.065 188.408 154.93 188.604 154.837 188.856C154.743 189.108 154.697 189.425 154.697 189.808V193.07H152.807Z" fill="#170F49"/>
<circle opacity="0.15" cx="121.415" cy="108.409" r="43.1102" fill="#2597D3" fill-opacity="0.36" stroke="#2597D3" stroke-width="1.0914"/>
<path d="M123.187 98.7225V85.9667L135.943 98.7225M106.953 82.4879C104.379 82.4879 102.314 84.552 102.314 87.1264V124.234C102.314 125.464 102.803 126.644 103.673 127.514C104.543 128.384 105.723 128.872 106.953 128.872H134.784C136.014 128.872 137.194 128.384 138.063 127.514C138.933 126.644 139.422 125.464 139.422 124.234V96.4032L125.507 82.4879H106.953Z" fill="#2597D3"/>
<defs>
<filter id="filter0_d_322_180" x="34.1719" y="34.5753" width="42.9178" height="37.6162" filterUnits="userSpaceOnUse" color-interpolation-filters="sRGB">
<feFlood flood-opacity="0" result="BackgroundImageFix"/>
<feColorMatrix in="SourceAlpha" type="matrix" values="0 0 0 0 0 0 0 0 0 0 0 0 0 0 0 0 0 0 127 0" result="hardAlpha"/>
<feOffset/>
<feGaussianBlur stdDeviation="4.09274"/>
<feColorMatrix type="matrix" values="0 0 0 0 0.290196 0 0 0 0 0.227451 0 0 0 0 1 0 0 0 0.5 0"/>
<feBlend mode="normal" in2="BackgroundImageFix" result="effect1_dropShadow_322_180"/>
<feBlend mode="normal" in="SourceGraphic" in2="effect1_dropShadow_322_180" result="shape"/>
</filter>
<filter id="filter1_dd_322_180" x="-0.00402927" y="0.633067" width="242.233" height="219.892" filterUnits="userSpaceOnUse" color-interpolation-filters="sRGB">
<feFlood flood-opacity="0" result="BackgroundImageFix"/>
<feColorMatrix in="SourceAlpha" type="matrix" values="0 0 0 0 0 0 0 0 0 0 0 0 0 0 0 0 0 0 127 0" result="hardAlpha"/>
<feOffset dy="3.27419"/>
<feGaussianBlur stdDeviation="4.09274"/>
<feColorMatrix type="matrix" values="0 0 0 0 0.121042 0 0 0 0 0.143938 0 0 0 0 0.35 0 0 0 0.07 0"/>
<feBlend mode="normal" in2="BackgroundImageFix" result="effect1_dropShadow_322_180"/>
<feColorMatrix in="SourceAlpha" type="matrix" values="0 0 0 0 0 0 0 0 0 0 0 0 0 0 0 0 0 0 127 0" result="hardAlpha"/>
<feOffset dy="1.6371"/>
<feGaussianBlur stdDeviation="4.50201"/>
<feColorMatrix type="matrix" values="0 0 0 0 0.269657 0 0 0 0 0.253993 0 0 0 0 0.641667 0 0 0 0.06 0"/>
<feBlend mode="normal" in2="effect1_dropShadow_322_180" result="effect2_dropShadow_322_180"/>
<feBlend mode="normal" in="SourceGraphic" in2="effect2_dropShadow_322_180" result="shape"/>
</filter>
</defs>
</svg>
