<svg width="235" height="212" viewBox="0 0 235 212" fill="none" xmlns="http://www.w3.org/2000/svg">
<g filter="url(#filter0_d_322_189)">
<rect x="5.33203" y="4" width="224.225" height="201.065" rx="13.0968" fill="white"/>
<rect x="5.74131" y="4.40927" width="223.406" height="200.247" rx="12.6875" stroke="#EFF0F7" stroke-width="0.818548"/>
</g>
<path d="M39.6452 173.07V163.27H46.0852V164.796H41.5352V167.358H45.6652V168.828H41.5352V171.544H46.0852V173.07H39.6452ZM47.7653 173.07V166.014H49.4313L49.5713 167.162C49.786 166.77 50.0893 166.452 50.4813 166.21C50.8827 165.967 51.3587 165.846 51.9093 165.846C52.4973 165.846 52.992 165.967 53.3933 166.21C53.7947 166.452 54.098 166.807 54.3033 167.274C54.518 167.74 54.6253 168.314 54.6253 168.996V173.07H52.7493V169.178C52.7493 168.618 52.628 168.188 52.3853 167.89C52.152 167.591 51.788 167.442 51.2933 167.442C50.976 167.442 50.6913 167.516 50.4393 167.666C50.1967 167.815 50.0053 168.03 49.8653 168.31C49.7253 168.58 49.6553 168.912 49.6553 169.304V173.07H47.7653ZM56.406 173.07V166.014H58.086L58.268 167.316C58.436 167.008 58.646 166.746 58.898 166.532C59.1593 166.317 59.4533 166.149 59.78 166.028C60.116 165.906 60.4846 165.846 60.886 165.846V167.848H60.242C59.962 167.848 59.7006 167.88 59.458 167.946C59.2246 168.011 59.0193 168.118 58.842 168.268C58.6646 168.408 58.5293 168.604 58.436 168.856C58.3426 169.108 58.296 169.425 58.296 169.808V173.07H56.406ZM62.1765 173.07V166.014H64.0665V173.07H62.1765ZM63.1285 165.048C62.7925 165.048 62.5125 164.95 62.2885 164.754C62.0738 164.548 61.9665 164.292 61.9665 163.984C61.9665 163.676 62.0738 163.424 62.2885 163.228C62.5125 163.022 62.7925 162.92 63.1285 162.92C63.4738 162.92 63.7538 163.022 63.9685 163.228C64.1925 163.424 64.3045 163.676 64.3045 163.984C64.3045 164.292 64.1925 164.548 63.9685 164.754C63.7538 164.95 63.4738 165.048 63.1285 165.048ZM69.3923 173.238C68.683 173.238 68.053 173.079 67.5023 172.762C66.9516 172.444 66.5223 172.01 66.2143 171.46C65.9063 170.909 65.7523 170.279 65.7523 169.57C65.7523 168.842 65.9063 168.202 66.2143 167.652C66.5223 167.092 66.9516 166.653 67.5023 166.336C68.053 166.009 68.683 165.846 69.3923 165.846C70.2976 165.846 71.0583 166.084 71.6743 166.56C72.2903 167.036 72.6823 167.689 72.8503 168.52H70.8483C70.7643 168.193 70.587 167.936 70.3163 167.75C70.055 167.563 69.7423 167.47 69.3783 167.47C69.0516 167.47 68.7576 167.554 68.4963 167.722C68.2443 167.88 68.0436 168.118 67.8943 168.436C67.7543 168.744 67.6843 169.112 67.6843 169.542C67.6843 169.868 67.7263 170.162 67.8103 170.424C67.8943 170.676 68.011 170.895 68.1603 171.082C68.3096 171.259 68.487 171.394 68.6923 171.488C68.907 171.581 69.1356 171.628 69.3783 171.628C69.621 171.628 69.8403 171.586 70.0363 171.502C70.2416 171.418 70.4143 171.301 70.5543 171.152C70.6943 170.993 70.7923 170.802 70.8483 170.578H72.8503C72.6823 171.39 72.2856 172.038 71.6603 172.524C71.0443 173 70.2883 173.238 69.3923 173.238ZM74.4802 173.07V162.99H76.3702V167.064C76.6035 166.69 76.9115 166.396 77.2942 166.182C77.6862 165.958 78.1389 165.846 78.6522 165.846C79.2402 165.846 79.7349 165.972 80.1362 166.224C80.5375 166.466 80.8409 166.821 81.0462 167.288C81.2515 167.754 81.3542 168.333 81.3542 169.024V173.07H79.4782V169.192C79.4782 168.632 79.3615 168.202 79.1282 167.904C78.8949 167.596 78.5262 167.442 78.0222 167.442C77.7142 167.442 77.4342 167.516 77.1822 167.666C76.9302 167.815 76.7295 168.034 76.5802 168.324C76.4402 168.604 76.3702 168.94 76.3702 169.332V173.07H74.4802ZM83.1765 173.07V166.014H85.0665V173.07H83.1765ZM84.1285 165.048C83.7925 165.048 83.5125 164.95 83.2885 164.754C83.0738 164.548 82.9665 164.292 82.9665 163.984C82.9665 163.676 83.0738 163.424 83.2885 163.228C83.5125 163.022 83.7925 162.92 84.1285 162.92C84.4738 162.92 84.7538 163.022 84.9685 163.228C85.1925 163.424 85.3045 163.676 85.3045 163.984C85.3045 164.292 85.1925 164.548 84.9685 164.754C84.7538 164.95 84.4738 165.048 84.1285 165.048ZM86.9763 173.07V166.014H88.6563L88.8383 167.316C89.0063 167.008 89.2163 166.746 89.4683 166.532C89.7296 166.317 90.0236 166.149 90.3503 166.028C90.6863 165.906 91.055 165.846 91.4563 165.846V167.848H90.8123C90.5323 167.848 90.271 167.88 90.0283 167.946C89.795 168.011 89.5896 168.118 89.4123 168.268C89.235 168.408 89.0996 168.604 89.0063 168.856C88.913 169.108 88.8663 169.425 88.8663 169.808V173.07H86.9763ZM95.9997 173.07V166.014H97.6657L97.8197 166.952C98.0437 166.616 98.3377 166.35 98.7017 166.154C99.0751 165.948 99.4997 165.846 99.9757 165.846C100.33 165.846 100.648 165.892 100.928 165.986C101.208 166.079 101.455 166.214 101.67 166.392C101.894 166.569 102.076 166.793 102.216 167.064C102.477 166.681 102.818 166.382 103.238 166.168C103.658 165.953 104.115 165.846 104.61 165.846C105.226 165.846 105.739 165.972 106.15 166.224C106.56 166.466 106.868 166.821 107.074 167.288C107.288 167.754 107.396 168.328 107.396 169.01V173.07H105.52V169.178C105.52 168.618 105.408 168.188 105.184 167.89C104.969 167.591 104.633 167.442 104.176 167.442C103.877 167.442 103.611 167.516 103.378 167.666C103.144 167.815 102.962 168.03 102.832 168.31C102.71 168.59 102.65 168.926 102.65 169.318V173.07H100.76V169.178C100.76 168.618 100.648 168.188 100.424 167.89C100.2 167.591 99.8544 167.442 99.3877 167.442C99.0984 167.442 98.8371 167.516 98.6037 167.666C98.3797 167.815 98.2024 168.03 98.0717 168.31C97.9504 168.59 97.8897 168.926 97.8897 169.318V173.07H95.9997ZM112.511 173.238C111.839 173.238 111.233 173.084 110.691 172.776C110.159 172.458 109.735 172.024 109.417 171.474C109.109 170.914 108.955 170.274 108.955 169.556C108.955 168.818 109.109 168.174 109.417 167.624C109.735 167.064 110.164 166.63 110.705 166.322C111.247 166.004 111.853 165.846 112.525 165.846C113.207 165.846 113.813 166.004 114.345 166.322C114.887 166.63 115.311 167.064 115.619 167.624C115.937 168.174 116.095 168.814 116.095 169.542C116.095 170.27 115.937 170.914 115.619 171.474C115.311 172.024 114.887 172.458 114.345 172.776C113.804 173.084 113.193 173.238 112.511 173.238ZM112.511 171.6C112.829 171.6 113.109 171.525 113.351 171.376C113.603 171.226 113.799 170.998 113.939 170.69C114.089 170.382 114.163 169.999 114.163 169.542C114.163 169.084 114.089 168.706 113.939 168.408C113.799 168.1 113.603 167.871 113.351 167.722C113.109 167.563 112.833 167.484 112.525 167.484C112.227 167.484 111.951 167.563 111.699 167.722C111.447 167.871 111.247 168.1 111.097 168.408C110.957 168.706 110.887 169.084 110.887 169.542C110.887 169.999 110.957 170.382 111.097 170.69C111.247 170.998 111.443 171.226 111.685 171.376C111.937 171.525 112.213 171.6 112.511 171.6ZM117.724 173.07V166.014H119.39L119.53 167.162C119.745 166.77 120.048 166.452 120.44 166.21C120.842 165.967 121.318 165.846 121.868 165.846C122.456 165.846 122.951 165.967 123.352 166.21C123.754 166.452 124.057 166.807 124.262 167.274C124.477 167.74 124.584 168.314 124.584 168.996V173.07H122.708V169.178C122.708 168.618 122.587 168.188 122.344 167.89C122.111 167.591 121.747 167.442 121.252 167.442C120.935 167.442 120.65 167.516 120.398 167.666C120.156 167.815 119.964 168.03 119.824 168.31C119.684 168.58 119.614 168.912 119.614 169.304V173.07H117.724ZM129.66 173.07V166.014H131.34L131.522 167.316C131.69 167.008 131.9 166.746 132.152 166.532C132.413 166.317 132.707 166.149 133.034 166.028C133.37 165.906 133.739 165.846 134.14 165.846V167.848H133.496C133.216 167.848 132.955 167.88 132.712 167.946C132.479 168.011 132.273 168.118 132.096 168.268C131.919 168.408 131.783 168.604 131.69 168.856C131.597 169.108 131.55 169.425 131.55 169.808V173.07H129.66ZM138.667 173.238C137.958 173.238 137.328 173.088 136.777 172.79C136.236 172.482 135.811 172.057 135.503 171.516C135.204 170.965 135.055 170.33 135.055 169.612C135.055 168.874 135.204 168.226 135.503 167.666C135.811 167.096 136.236 166.653 136.777 166.336C137.318 166.009 137.948 165.846 138.667 165.846C139.367 165.846 139.978 166 140.501 166.308C141.024 166.616 141.43 167.031 141.719 167.554C142.008 168.076 142.153 168.669 142.153 169.332C142.153 169.425 142.153 169.532 142.153 169.654C142.153 169.766 142.144 169.882 142.125 170.004H136.399V168.856H140.249C140.221 168.398 140.058 168.039 139.759 167.778C139.47 167.516 139.106 167.386 138.667 167.386C138.35 167.386 138.056 167.46 137.785 167.61C137.514 167.75 137.3 167.969 137.141 168.268C136.992 168.566 136.917 168.944 136.917 169.402V169.808C136.917 170.19 136.987 170.526 137.127 170.816C137.276 171.096 137.482 171.315 137.743 171.474C138.004 171.623 138.308 171.698 138.653 171.698C138.998 171.698 139.283 171.623 139.507 171.474C139.74 171.324 139.913 171.133 140.025 170.9H141.957C141.826 171.338 141.607 171.735 141.299 172.09C140.991 172.444 140.613 172.724 140.165 172.93C139.717 173.135 139.218 173.238 138.667 173.238ZM137.155 165.412L136.987 164.166L140.053 162.416L140.277 163.858L137.155 165.412ZM146.585 173.238C145.941 173.238 145.381 173.135 144.905 172.93C144.429 172.724 144.056 172.44 143.785 172.076C143.514 171.712 143.36 171.301 143.323 170.844H145.199C145.246 171.021 145.325 171.184 145.437 171.334C145.549 171.474 145.698 171.586 145.885 171.67C146.072 171.754 146.296 171.796 146.557 171.796C146.809 171.796 147.014 171.763 147.173 171.698C147.332 171.623 147.448 171.525 147.523 171.404C147.607 171.282 147.649 171.156 147.649 171.026C147.649 170.83 147.593 170.68 147.481 170.578C147.369 170.466 147.206 170.377 146.991 170.312C146.776 170.246 146.515 170.181 146.207 170.116C145.871 170.05 145.54 169.971 145.213 169.878C144.896 169.775 144.611 169.649 144.359 169.5C144.107 169.35 143.906 169.159 143.757 168.926C143.608 168.692 143.533 168.403 143.533 168.058C143.533 167.638 143.645 167.264 143.869 166.938C144.093 166.602 144.42 166.336 144.849 166.14C145.278 165.944 145.796 165.846 146.403 165.846C147.252 165.846 147.924 166.037 148.419 166.42C148.914 166.802 149.208 167.33 149.301 168.002H147.523C147.467 167.787 147.341 167.619 147.145 167.498C146.958 167.367 146.706 167.302 146.389 167.302C146.053 167.302 145.796 167.362 145.619 167.484C145.442 167.605 145.353 167.764 145.353 167.96C145.353 168.09 145.409 168.207 145.521 168.31C145.642 168.412 145.81 168.501 146.025 168.576C146.24 168.641 146.501 168.706 146.809 168.772C147.35 168.884 147.826 169.014 148.237 169.164C148.648 169.304 148.97 169.509 149.203 169.78C149.436 170.041 149.553 170.424 149.553 170.928C149.553 171.376 149.432 171.777 149.189 172.132C148.946 172.477 148.601 172.748 148.153 172.944C147.714 173.14 147.192 173.238 146.585 173.238ZM154.54 173.238C153.831 173.238 153.201 173.088 152.65 172.79C152.109 172.482 151.684 172.057 151.376 171.516C151.077 170.965 150.928 170.33 150.928 169.612C150.928 168.874 151.077 168.226 151.376 167.666C151.684 167.096 152.109 166.653 152.65 166.336C153.191 166.009 153.821 165.846 154.54 165.846C155.24 165.846 155.851 166 156.374 166.308C156.897 166.616 157.303 167.031 157.592 167.554C157.881 168.076 158.026 168.669 158.026 169.332C158.026 169.425 158.026 169.532 158.026 169.654C158.026 169.766 158.017 169.882 157.998 170.004H152.272V168.856H156.122C156.094 168.398 155.931 168.039 155.632 167.778C155.343 167.516 154.979 167.386 154.54 167.386C154.223 167.386 153.929 167.46 153.658 167.61C153.387 167.75 153.173 167.969 153.014 168.268C152.865 168.566 152.79 168.944 152.79 169.402V169.808C152.79 170.19 152.86 170.526 153 170.816C153.149 171.096 153.355 171.315 153.616 171.474C153.877 171.623 154.181 171.698 154.526 171.698C154.871 171.698 155.156 171.623 155.38 171.474C155.613 171.324 155.786 171.133 155.898 170.9H157.83C157.699 171.338 157.48 171.735 157.172 172.09C156.864 172.444 156.486 172.724 156.038 172.93C155.59 173.135 155.091 173.238 154.54 173.238ZM161.954 173.238C161.366 173.238 160.881 173.144 160.498 172.958C160.115 172.762 159.831 172.505 159.644 172.188C159.467 171.861 159.378 171.502 159.378 171.11C159.378 170.68 159.485 170.302 159.7 169.976C159.924 169.649 160.255 169.392 160.694 169.206C161.142 169.019 161.702 168.926 162.374 168.926H164.124C164.124 168.58 164.077 168.296 163.984 168.072C163.891 167.838 163.746 167.666 163.55 167.554C163.354 167.442 163.093 167.386 162.766 167.386C162.411 167.386 162.108 167.465 161.856 167.624C161.613 167.773 161.464 168.006 161.408 168.324H159.574C159.621 167.82 159.784 167.386 160.064 167.022C160.353 166.648 160.731 166.359 161.198 166.154C161.674 165.948 162.201 165.846 162.78 165.846C163.443 165.846 164.017 165.958 164.502 166.182C164.987 166.406 165.361 166.728 165.622 167.148C165.883 167.568 166.014 168.086 166.014 168.702V173.07H164.418L164.208 171.992C164.105 172.178 163.984 172.346 163.844 172.496C163.704 172.645 163.541 172.776 163.354 172.888C163.167 173 162.957 173.084 162.724 173.14C162.491 173.205 162.234 173.238 161.954 173.238ZM162.402 171.782C162.645 171.782 162.859 171.74 163.046 171.656C163.242 171.562 163.41 171.441 163.55 171.292C163.69 171.133 163.797 170.956 163.872 170.76C163.956 170.554 164.012 170.335 164.04 170.102V170.088H162.598C162.309 170.088 162.071 170.125 161.884 170.2C161.707 170.265 161.576 170.363 161.492 170.494C161.408 170.624 161.366 170.774 161.366 170.942C161.366 171.128 161.408 171.282 161.492 171.404C161.576 171.525 161.697 171.618 161.856 171.684C162.015 171.749 162.197 171.782 162.402 171.782ZM170.409 173.238C169.84 173.238 169.35 173.121 168.939 172.888C168.538 172.645 168.23 172.295 168.015 171.838C167.8 171.371 167.693 170.797 167.693 170.116V166.014H169.583V169.92C169.583 170.489 169.7 170.918 169.933 171.208C170.176 171.497 170.544 171.642 171.039 171.642C171.356 171.642 171.636 171.572 171.879 171.432C172.122 171.282 172.313 171.072 172.453 170.802C172.602 170.522 172.677 170.181 172.677 169.78V166.014H174.553V173.07H172.901L172.747 171.922C172.542 172.323 172.238 172.645 171.837 172.888C171.436 173.121 170.96 173.238 170.409 173.238ZM182.835 173.238C182.191 173.238 181.612 173.079 181.099 172.762C180.595 172.444 180.198 172.006 179.909 171.446C179.62 170.886 179.475 170.256 179.475 169.556C179.475 168.837 179.62 168.202 179.909 167.652C180.208 167.092 180.614 166.653 181.127 166.336C181.65 166.009 182.233 165.846 182.877 165.846C183.381 165.846 183.824 165.939 184.207 166.126C184.59 166.312 184.898 166.578 185.131 166.924V162.99H187.021V173.07H185.341L185.131 172.104C184.991 172.3 184.814 172.486 184.599 172.664C184.394 172.841 184.146 172.981 183.857 173.084C183.568 173.186 183.227 173.238 182.835 173.238ZM183.283 171.586C183.656 171.586 183.983 171.502 184.263 171.334C184.552 171.156 184.776 170.914 184.935 170.606C185.094 170.298 185.173 169.943 185.173 169.542C185.173 169.14 185.094 168.786 184.935 168.478C184.776 168.17 184.552 167.932 184.263 167.764C183.983 167.586 183.656 167.498 183.283 167.498C182.928 167.498 182.606 167.586 182.317 167.764C182.028 167.932 181.799 168.17 181.631 168.478C181.472 168.786 181.393 169.136 181.393 169.528C181.393 169.938 181.472 170.298 181.631 170.606C181.799 170.914 182.023 171.156 182.303 171.334C182.592 171.502 182.919 171.586 183.283 171.586ZM192.261 173.238C191.551 173.238 190.921 173.088 190.371 172.79C189.829 172.482 189.405 172.057 189.097 171.516C188.798 170.965 188.649 170.33 188.649 169.612C188.649 168.874 188.798 168.226 189.097 167.666C189.405 167.096 189.829 166.653 190.371 166.336C190.912 166.009 191.542 165.846 192.261 165.846C192.961 165.846 193.572 166 194.095 166.308C194.617 166.616 195.023 167.031 195.313 167.554C195.602 168.076 195.747 168.669 195.747 169.332C195.747 169.425 195.747 169.532 195.747 169.654C195.747 169.766 195.737 169.882 195.719 170.004H189.993V168.856H193.843C193.815 168.398 193.651 168.039 193.353 167.778C193.063 167.516 192.699 167.386 192.261 167.386C191.943 167.386 191.649 167.46 191.379 167.61C191.108 167.75 190.893 167.969 190.735 168.268C190.585 168.566 190.511 168.944 190.511 169.402V169.808C190.511 170.19 190.581 170.526 190.721 170.816C190.87 171.096 191.075 171.315 191.337 171.474C191.598 171.623 191.901 171.698 192.247 171.698C192.592 171.698 192.877 171.623 193.101 171.474C193.334 171.324 193.507 171.133 193.619 170.9H195.551C195.42 171.338 195.201 171.735 194.893 172.09C194.585 172.444 194.207 172.724 193.759 172.93C193.311 173.135 192.811 173.238 192.261 173.238ZM78.7185 189.07V182.014H80.3845L80.5385 182.952C80.7625 182.616 81.0565 182.35 81.4205 182.154C81.7938 181.948 82.2185 181.846 82.6945 181.846C83.0491 181.846 83.3665 181.892 83.6465 181.986C83.9265 182.079 84.1738 182.214 84.3885 182.392C84.6125 182.569 84.7945 182.793 84.9345 183.064C85.1958 182.681 85.5365 182.382 85.9565 182.168C86.3765 181.953 86.8338 181.846 87.3285 181.846C87.9445 181.846 88.4578 181.972 88.8685 182.224C89.2791 182.466 89.5871 182.821 89.7925 183.288C90.0071 183.754 90.1145 184.328 90.1145 185.01V189.07H88.2385V185.178C88.2385 184.618 88.1265 184.188 87.9025 183.89C87.6878 183.591 87.3518 183.442 86.8945 183.442C86.5958 183.442 86.3298 183.516 86.0965 183.666C85.8631 183.815 85.6811 184.03 85.5505 184.31C85.4291 184.59 85.3685 184.926 85.3685 185.318V189.07H83.4785V185.178C83.4785 184.618 83.3665 184.188 83.1425 183.89C82.9185 183.591 82.5731 183.442 82.1065 183.442C81.8171 183.442 81.5558 183.516 81.3225 183.666C81.0985 183.815 80.9211 184.03 80.7905 184.31C80.6691 184.59 80.6085 184.926 80.6085 185.318V189.07H78.7185ZM94.2782 189.238C93.6902 189.238 93.2048 189.144 92.8222 188.958C92.4395 188.762 92.1548 188.505 91.9682 188.188C91.7908 187.861 91.7022 187.502 91.7022 187.11C91.7022 186.68 91.8095 186.302 92.0242 185.976C92.2482 185.649 92.5795 185.392 93.0182 185.206C93.4662 185.019 94.0262 184.926 94.6982 184.926H96.4482C96.4482 184.58 96.4015 184.296 96.3082 184.072C96.2148 183.838 96.0702 183.666 95.8742 183.554C95.6782 183.442 95.4168 183.386 95.0902 183.386C94.7355 183.386 94.4322 183.465 94.1802 183.624C93.9375 183.773 93.7882 184.006 93.7322 184.324H91.8982C91.9448 183.82 92.1082 183.386 92.3882 183.022C92.6775 182.648 93.0555 182.359 93.5222 182.154C93.9982 181.948 94.5255 181.846 95.1042 181.846C95.7668 181.846 96.3408 181.958 96.8262 182.182C97.3115 182.406 97.6848 182.728 97.9462 183.148C98.2075 183.568 98.3382 184.086 98.3382 184.702V189.07H96.7422L96.5322 187.992C96.4295 188.178 96.3082 188.346 96.1682 188.496C96.0282 188.645 95.8648 188.776 95.6782 188.888C95.4915 189 95.2815 189.084 95.0482 189.14C94.8148 189.205 94.5582 189.238 94.2782 189.238ZM94.7262 187.782C94.9688 187.782 95.1835 187.74 95.3702 187.656C95.5662 187.562 95.7342 187.441 95.8742 187.292C96.0142 187.133 96.1215 186.956 96.1962 186.76C96.2802 186.554 96.3362 186.335 96.3642 186.102V186.088H94.9222C94.6328 186.088 94.3948 186.125 94.2082 186.2C94.0308 186.265 93.9002 186.363 93.8162 186.494C93.7322 186.624 93.6902 186.774 93.6902 186.942C93.6902 187.128 93.7322 187.282 93.8162 187.404C93.9002 187.525 94.0215 187.618 94.1802 187.684C94.3388 187.749 94.5208 187.782 94.7262 187.782ZM100.101 189.07V182.014H101.767L101.907 183.162C102.122 182.77 102.425 182.452 102.817 182.21C103.219 181.967 103.695 181.846 104.245 181.846C104.833 181.846 105.328 181.967 105.729 182.21C106.131 182.452 106.434 182.807 106.639 183.274C106.854 183.74 106.961 184.314 106.961 184.996V189.07H105.085V185.178C105.085 184.618 104.964 184.188 104.721 183.89C104.488 183.591 104.124 183.442 103.629 183.442C103.312 183.442 103.027 183.516 102.775 183.666C102.533 183.815 102.341 184.03 102.201 184.31C102.061 184.58 101.991 184.912 101.991 185.304V189.07H100.101ZM111.878 189.238C111.234 189.238 110.655 189.079 110.142 188.762C109.638 188.444 109.241 188.006 108.952 187.446C108.663 186.886 108.518 186.256 108.518 185.556C108.518 184.837 108.663 184.202 108.952 183.652C109.251 183.092 109.657 182.653 110.17 182.336C110.693 182.009 111.276 181.846 111.92 181.846C112.424 181.846 112.867 181.939 113.25 182.126C113.633 182.312 113.941 182.578 114.174 182.924V178.99H116.064V189.07H114.384L114.174 188.104C114.034 188.3 113.857 188.486 113.642 188.664C113.437 188.841 113.189 188.981 112.9 189.084C112.611 189.186 112.27 189.238 111.878 189.238ZM112.326 187.586C112.699 187.586 113.026 187.502 113.306 187.334C113.595 187.156 113.819 186.914 113.978 186.606C114.137 186.298 114.216 185.943 114.216 185.542C114.216 185.14 114.137 184.786 113.978 184.478C113.819 184.17 113.595 183.932 113.306 183.764C113.026 183.586 112.699 183.498 112.326 183.498C111.971 183.498 111.649 183.586 111.36 183.764C111.071 183.932 110.842 184.17 110.674 184.478C110.515 184.786 110.436 185.136 110.436 185.528C110.436 185.938 110.515 186.298 110.674 186.606C110.842 186.914 111.066 187.156 111.346 187.334C111.635 187.502 111.962 187.586 112.326 187.586ZM120.296 189.238C119.708 189.238 119.222 189.144 118.84 188.958C118.457 188.762 118.172 188.505 117.986 188.188C117.808 187.861 117.72 187.502 117.72 187.11C117.72 186.68 117.827 186.302 118.042 185.976C118.266 185.649 118.597 185.392 119.036 185.206C119.484 185.019 120.044 184.926 120.716 184.926H122.466C122.466 184.58 122.419 184.296 122.326 184.072C122.232 183.838 122.088 183.666 121.892 183.554C121.696 183.442 121.434 183.386 121.108 183.386C120.753 183.386 120.45 183.465 120.198 183.624C119.955 183.773 119.806 184.006 119.75 184.324H117.916C117.962 183.82 118.126 183.386 118.406 183.022C118.695 182.648 119.073 182.359 119.54 182.154C120.016 181.948 120.543 181.846 121.122 181.846C121.784 181.846 122.358 181.958 122.844 182.182C123.329 182.406 123.702 182.728 123.964 183.148C124.225 183.568 124.356 184.086 124.356 184.702V189.07H122.76L122.55 187.992C122.447 188.178 122.326 188.346 122.186 188.496C122.046 188.645 121.882 188.776 121.696 188.888C121.509 189 121.299 189.084 121.066 189.14C120.832 189.205 120.576 189.238 120.296 189.238ZM120.744 187.782C120.986 187.782 121.201 187.74 121.388 187.656C121.584 187.562 121.752 187.441 121.892 187.292C122.032 187.133 122.139 186.956 122.214 186.76C122.298 186.554 122.354 186.335 122.382 186.102V186.088H120.94C120.65 186.088 120.412 186.125 120.226 186.2C120.048 186.265 119.918 186.363 119.834 186.494C119.75 186.624 119.708 186.774 119.708 186.942C119.708 187.128 119.75 187.282 119.834 187.404C119.918 187.525 120.039 187.618 120.198 187.684C120.356 187.749 120.538 187.782 120.744 187.782ZM129.215 189.07C128.72 189.07 128.286 188.995 127.913 188.846C127.549 188.687 127.264 188.43 127.059 188.076C126.853 187.712 126.751 187.217 126.751 186.592V183.596H125.547V182.014H126.751L126.961 180.096H128.641V182.014H130.503V183.596H128.641V186.62C128.641 186.937 128.711 187.156 128.851 187.278C128.991 187.399 129.229 187.46 129.565 187.46H130.489V189.07H129.215ZM134.473 189.238C133.885 189.238 133.4 189.144 133.017 188.958C132.635 188.762 132.35 188.505 132.163 188.188C131.986 187.861 131.897 187.502 131.897 187.11C131.897 186.68 132.005 186.302 132.219 185.976C132.443 185.649 132.775 185.392 133.213 185.206C133.661 185.019 134.221 184.926 134.893 184.926H136.643C136.643 184.58 136.597 184.296 136.503 184.072C136.41 183.838 136.265 183.666 136.069 183.554C135.873 183.442 135.612 183.386 135.285 183.386C134.931 183.386 134.627 183.465 134.375 183.624C134.133 183.773 133.983 184.006 133.927 184.324H132.093C132.14 183.82 132.303 183.386 132.583 183.022C132.873 182.648 133.251 182.359 133.717 182.154C134.193 181.948 134.721 181.846 135.299 181.846C135.962 181.846 136.536 181.958 137.021 182.182C137.507 182.406 137.88 182.728 138.141 183.148C138.403 183.568 138.533 184.086 138.533 184.702V189.07H136.937L136.727 187.992C136.625 188.178 136.503 188.346 136.363 188.496C136.223 188.645 136.06 188.776 135.873 188.888C135.687 189 135.477 189.084 135.243 189.14C135.01 189.205 134.753 189.238 134.473 189.238ZM134.921 187.782C135.164 187.782 135.379 187.74 135.565 187.656C135.761 187.562 135.929 187.441 136.069 187.292C136.209 187.133 136.317 186.956 136.391 186.76C136.475 186.554 136.531 186.335 136.559 186.102V186.088H135.117C134.828 186.088 134.59 186.125 134.403 186.2C134.226 186.265 134.095 186.363 134.011 186.494C133.927 186.624 133.885 186.774 133.885 186.942C133.885 187.128 133.927 187.282 134.011 187.404C134.095 187.525 134.217 187.618 134.375 187.684C134.534 187.749 134.716 187.782 134.921 187.782ZM140.339 189.07V182.014H142.229V189.07H140.339ZM141.291 181.048C140.955 181.048 140.675 180.95 140.451 180.754C140.236 180.548 140.129 180.292 140.129 179.984C140.129 179.676 140.236 179.424 140.451 179.228C140.675 179.022 140.955 178.92 141.291 178.92C141.636 178.92 141.916 179.022 142.131 179.228C142.355 179.424 142.467 179.676 142.467 179.984C142.467 180.292 142.355 180.548 142.131 180.754C141.916 180.95 141.636 181.048 141.291 181.048ZM144.138 189.07V182.014H145.818L146 183.316C146.168 183.008 146.378 182.746 146.63 182.532C146.892 182.317 147.186 182.149 147.512 182.028C147.848 181.906 148.217 181.846 148.618 181.846V183.848H147.974C147.694 183.848 147.433 183.88 147.19 183.946C146.957 184.011 146.752 184.118 146.574 184.268C146.397 184.408 146.262 184.604 146.168 184.856C146.075 185.108 146.028 185.425 146.028 185.808V189.07H144.138ZM153.146 189.238C152.436 189.238 151.806 189.088 151.256 188.79C150.714 188.482 150.29 188.057 149.982 187.516C149.683 186.965 149.534 186.33 149.534 185.612C149.534 184.874 149.683 184.226 149.982 183.666C150.29 183.096 150.714 182.653 151.256 182.336C151.797 182.009 152.427 181.846 153.146 181.846C153.846 181.846 154.457 182 154.98 182.308C155.502 182.616 155.908 183.031 156.198 183.554C156.487 184.076 156.632 184.669 156.632 185.332C156.632 185.425 156.632 185.532 156.632 185.654C156.632 185.766 156.622 185.882 156.604 186.004H150.878V184.856H154.728C154.7 184.398 154.536 184.039 154.238 183.778C153.948 183.516 153.584 183.386 153.146 183.386C152.828 183.386 152.534 183.46 152.264 183.61C151.993 183.75 151.778 183.969 151.62 184.268C151.47 184.566 151.396 184.944 151.396 185.402V185.808C151.396 186.19 151.466 186.526 151.606 186.816C151.755 187.096 151.96 187.315 152.222 187.474C152.483 187.623 152.786 187.698 153.132 187.698C153.477 187.698 153.762 187.623 153.986 187.474C154.219 187.324 154.392 187.133 154.504 186.9H156.436C156.305 187.338 156.086 187.735 155.778 188.09C155.47 188.444 155.092 188.724 154.644 188.93C154.196 189.135 153.696 189.238 153.146 189.238Z" fill="#170F49"/>
<circle opacity="0.15" cx="116.98" cy="104.409" r="43.6559" fill="#2597D3" fill-opacity="0.36"/>
<path d="M100.609 124.054C99.4082 124.054 98.3808 123.604 97.5266 122.705C96.6724 121.806 96.2446 120.724 96.2432 119.458V94.1839C96.2432 92.9202 96.671 91.8387 97.5266 90.9396C98.3823 90.0404 99.4097 89.5901 100.609 89.5885H109.34V84.9932C109.34 83.7295 109.768 82.648 110.623 81.7489C111.479 80.8497 112.506 80.3994 113.706 80.3978H122.437C123.637 80.3978 124.665 80.8482 125.521 81.7489C126.377 82.6496 126.804 83.731 126.802 84.9932V89.5885H135.533C136.734 89.5885 137.762 90.0389 138.618 90.9396C139.473 91.8403 139.901 92.9217 139.899 94.1839V119.458C139.899 120.722 139.472 121.804 138.618 122.705C137.764 123.606 136.735 124.055 135.533 124.054H100.609ZM113.706 89.5885H122.437V84.9932H113.706V89.5885Z" fill="#2597D3"/>
<defs>
<filter id="filter0_d_322_189" x="0.420743" y="0.725807" width="234.047" height="210.888" filterUnits="userSpaceOnUse" color-interpolation-filters="sRGB">
<feFlood flood-opacity="0" result="BackgroundImageFix"/>
<feColorMatrix in="SourceAlpha" type="matrix" values="0 0 0 0 0 0 0 0 0 0 0 0 0 0 0 0 0 0 127 0" result="hardAlpha"/>
<feOffset dy="1.6371"/>
<feGaussianBlur stdDeviation="2.45564"/>
<feColorMatrix type="matrix" values="0 0 0 0 0.0726778 0 0 0 0 0.0688889 0 0 0 0 0.258333 0 0 0 0.07 0"/>
<feBlend mode="normal" in2="BackgroundImageFix" result="effect1_dropShadow_322_189"/>
<feBlend mode="normal" in="SourceGraphic" in2="effect1_dropShadow_322_189" result="shape"/>
</filter>
</defs>
</svg>
