<svg width="12" height="22" viewBox="0 0 12 22" fill="none" xmlns="http://www.w3.org/2000/svg">
<path d="M6.00683 20.8291C8.76825 20.8291 11.0068 18.5906 11.0068 15.8291V4.27813C11.0068 4.10076 10.9509 3.9279 10.8472 3.78399C10.7436 3.64009 10.5973 3.53241 10.429 3.4762L1.98178 0.660453C1.85476 0.617886 1.71944 0.606179 1.587 0.626301C1.45456 0.646423 1.32882 0.697796 1.22018 0.776167C1.11154 0.854538 1.02312 0.957654 0.962247 1.07698C0.901374 1.19631 0.869794 1.32842 0.87012 1.46238V15.8291" stroke="#A0A3BD" stroke-width="1.12" stroke-linecap="round" stroke-linejoin="round"/>
<path d="M7.62695 15.4951V16.3398" stroke="#A0A3BD" stroke-width="1.12" stroke-linecap="round" stroke-linejoin="round"/>
<path d="M7.62695 11.2715V12.1162" stroke="#A0A3BD" stroke-width="1.12" stroke-linecap="round" stroke-linejoin="round"/>
<path d="M7.62695 7.04785V7.89258" stroke="#A0A3BD" stroke-width="1.12" stroke-linecap="round" stroke-linejoin="round"/>
<path d="M4.25 15.4951V16.3398" stroke="#A0A3BD" stroke-width="1.12" stroke-linecap="round" stroke-linejoin="round"/>
<path d="M4.25 11.2715V12.1162" stroke="#A0A3BD" stroke-width="1.12" stroke-linecap="round" stroke-linejoin="round"/>
<path d="M4.25 7.04785V7.89258" stroke="#A0A3BD" stroke-width="1.12" stroke-linecap="round" stroke-linejoin="round"/>
</svg>
