<svg width="24" height="23" viewBox="0 0 24 23" fill="none" xmlns="http://www.w3.org/2000/svg">
<g opacity="0.2">
<path d="M7.22898 13.7227L7.36425 14.1C7.92644 15.6683 8.88417 16.9437 10.2484 17.9372C11.6027 18.9235 13.1454 19.418 14.8965 19.418H14.8968C15.9185 19.4186 16.8787 19.2376 17.782 18.8776C18.4995 18.5916 19.1526 18.2221 19.7431 17.769L19.2011 17.2364C18.6721 17.6309 18.0924 17.9498 17.4637 18.1931C16.6582 18.5048 15.801 18.6586 14.8968 18.6586L7.22898 13.7227ZM7.22898 13.7227H6.82812M7.22898 13.7227H6.82812M6.82812 13.7227H4.07539M6.82812 13.7227H4.07539M4.07539 13.7227V12.9633H6.40098H7.04613L6.96611 12.3232C6.92157 11.9668 6.90408 11.6438 6.91147 11.3527C6.91936 11.0422 6.93799 10.7818 6.96573 10.569L7.04954 9.92583H6.40098H4.07539V9.16646H6.82812H7.22898L7.36425 8.78912C7.92644 7.2209 8.88417 5.94543 10.2484 4.95194C11.6027 3.96565 13.1454 3.47114 14.8965 3.47114C15.9189 3.47114 16.8795 3.65248 17.7829 4.01254C18.5003 4.29846 19.1531 4.6677 19.7431 5.12024L19.2009 5.65287C18.6717 5.25842 18.0921 4.93943 17.4638 4.6961C16.6588 4.38434 15.8014 4.23052 14.8965 4.23052C13.4463 4.23052 12.133 4.61219 10.9743 5.38217C9.8308 6.14197 8.96234 7.13349 8.37906 8.35083L7.98826 9.16646H8.89268H14.327V9.92583H8.32314H7.83177L7.75976 10.4119C7.69269 10.8646 7.66499 11.2792 7.6831 11.6508C7.69937 11.9846 7.72446 12.2668 7.76141 12.4877L7.84094 12.9633H8.32314H14.327V13.7227H8.89268H7.98848L8.379 14.5382C8.96226 15.7562 9.83072 16.7481 10.9743 17.5079C12.133 18.2779 13.4463 18.6593 14.8965 18.6586L4.07539 13.7227ZM9.91309 18.3976C8.45762 17.3377 7.4293 15.9692 6.82812 14.2922L14.8965 19.9876C13.0297 19.9876 11.3686 19.4576 9.91309 18.3976Z" fill="#797979" stroke="black" stroke-width="1.13906"/>
</g>
</svg>
