<svg width="16" height="21" viewBox="0 0 16 21" fill="none" xmlns="http://www.w3.org/2000/svg">
<path d="M11.6364 0.375C11.6364 0.265625 11.6704 0.175781 11.7386 0.105469C11.8068 0.0351562 11.8939 0 12 0H15.2727C15.4697 0 15.6401 0.0742188 15.7841 0.222656C15.928 0.371094 16 0.546875 16 0.75V4.125C16 4.23438 15.9659 4.32422 15.8977 4.39453C15.8295 4.46484 15.7424 4.5 15.6364 4.5H14.9091C14.803 4.5 14.7159 4.46484 14.6477 4.39453C14.5795 4.32422 14.5454 4.23438 14.5454 4.125V2.55469L11.6591 5.54297C12.6136 6.77734 13.0909 8.17969 13.0909 9.75C13.0909 11.4766 12.5322 12.9785 11.4148 14.2559C10.2973 15.5332 8.91666 16.2656 7.27272 16.4531V18H8.36363C8.46969 18 8.55681 18.0352 8.62499 18.1055C8.69317 18.1758 8.72726 18.2656 8.72726 18.375V19.125C8.72726 19.2344 8.69317 19.3242 8.62499 19.3945C8.55681 19.4648 8.46969 19.5 8.36363 19.5H7.27272V20.625C7.27272 20.7344 7.23863 20.8242 7.17044 20.8945C7.10226 20.9648 7.01514 21 6.90908 21H6.18181C6.07575 21 5.98863 20.9648 5.92044 20.8945C5.85226 20.8242 5.81817 20.7344 5.81817 20.625V19.5H4.72726C4.6212 19.5 4.53408 19.4648 4.4659 19.3945C4.39772 19.3242 4.36363 19.2344 4.36363 19.125V18.375C4.36363 18.2656 4.39772 18.1758 4.4659 18.1055C4.53408 18.0352 4.6212 18 4.72726 18H5.81817V16.4531C4.68938 16.3281 3.66476 15.9258 2.74431 15.2461C1.82385 14.5664 1.11741 13.6934 0.624989 12.627C0.132565 11.5605 -0.0681928 10.4219 0.0227163 9.21094C0.143928 7.61719 0.749989 6.23633 1.8409 5.06836C2.93181 3.90039 4.2462 3.22656 5.78408 3.04688C6.67802 2.9375 7.54166 3.01172 8.37499 3.26953C9.20832 3.52734 9.95832 3.92969 10.625 4.47656L13.5227 1.5H12C11.8939 1.5 11.8068 1.46484 11.7386 1.39453C11.6704 1.32422 11.6364 1.23438 11.6364 1.125V0.375ZM6.54544 15C7.94696 15 9.14582 14.4863 10.142 13.459C11.1382 12.4316 11.6364 11.1953 11.6364 9.75C11.6364 8.30469 11.1382 7.06836 10.142 6.04102C9.14582 5.01367 7.94696 4.5 6.54544 4.5C5.14393 4.5 3.94506 5.01367 2.94885 6.04102C1.95264 7.06836 1.45453 8.30469 1.45453 9.75C1.45453 11.1953 1.95264 12.4316 2.94885 13.459C3.94506 14.4863 5.14393 15 6.54544 15Z" fill="#A8A7BB"/>
</svg>
