<svg width="12" height="20" viewBox="0 0 12 20" fill="none" xmlns="http://www.w3.org/2000/svg">
<path d="M9.51734 0.890137H2.3956C1.52155 0.890137 0.812988 1.59869 0.812988 2.47275V17.5075C0.812988 18.3816 1.52155 19.0901 2.3956 19.0901H9.51734C10.3914 19.0901 11.0999 18.3816 11.0999 17.5075V2.47275C11.0999 1.59869 10.3914 0.890137 9.51734 0.890137Z" stroke="#A0A3BD" stroke-width="1.12" stroke-linecap="round" stroke-linejoin="round"/>
<path d="M8.54856 0.890137V1.927C8.54856 2.20199 8.43932 2.46572 8.24487 2.66017C8.05042 2.85462 7.78669 2.96386 7.5117 2.96386H4.40112C4.12613 2.96386 3.8624 2.85462 3.66795 2.66017C3.4735 2.46572 3.36426 2.20199 3.36426 1.927V0.890137" stroke="#A0A3BD" stroke-width="1.12" stroke-linecap="round" stroke-linejoin="round"/>
</svg>
