<svg width="14" height="20" viewBox="0 0 14 20" fill="none" xmlns="http://www.w3.org/2000/svg">
<path d="M7 9.50003C6.33696 9.50003 5.70107 9.23664 5.23223 8.7678C4.76339 8.29896 4.5 7.66307 4.5 7.00003C4.5 6.33699 4.76339 5.7011 5.23223 5.23226C5.70107 4.76342 6.33696 4.50003 7 4.50003C7.66304 4.50003 8.29893 4.76342 8.76777 5.23226C9.23661 5.7011 9.5 6.33699 9.5 7.00003C9.5 7.32834 9.43534 7.65343 9.3097 7.95674C9.18406 8.26005 8.99991 8.53565 8.76777 8.7678C8.53562 8.99994 8.26002 9.18409 7.95671 9.30973C7.65339 9.43537 7.3283 9.50003 7 9.50003ZM7 3.05176e-05C5.14348 3.05176e-05 3.36301 0.737528 2.05025 2.05028C0.737498 3.36304 0 5.14352 0 7.00003C0 12.25 7 20 7 20C7 20 14 12.25 14 7.00003C14 5.14352 13.2625 3.36304 11.9497 2.05028C10.637 0.737528 8.85652 3.05176e-05 7 3.05176e-05Z" fill="#A8A7BB"/>
</svg>
