<svg width="48" height="48" viewBox="0 0 48 48" fill="none" xmlns="http://www.w3.org/2000/svg">
<path d="M4.8 48C3.48 48 2.3504 47.5057 1.4112 46.517C0.472 45.5284 0.0016 44.3385 0 42.9474V15.1579C0 13.7684 0.4704 12.5794 1.4112 11.5907C2.352 10.6021 3.4816 10.1069 4.8 10.1053H14.4V5.05263C14.4 3.66316 14.8704 2.47411 15.8112 1.48547C16.752 0.496842 17.8816 0.00168421 19.2 0H28.8C30.12 0 31.2504 0.495158 32.1912 1.48547C33.132 2.47579 33.6016 3.66484 33.6 5.05263V10.1053H43.2C44.52 10.1053 45.6504 10.6004 46.5912 11.5907C47.532 12.5811 48.0016 13.7701 48 15.1579V42.9474C48 44.3368 47.5304 45.5267 46.5912 46.517C45.652 47.5074 44.5216 48.0017 43.2 48H4.8ZM19.2 10.1053H28.8V5.05263H19.2V10.1053Z" fill="#2597D3"/>
</svg>
