<svg width="49" height="48" viewBox="0 0 49 48" fill="none" xmlns="http://www.w3.org/2000/svg">
<path d="M24.75 0C27.9326 0 30.9848 1.26428 33.2353 3.51472C35.4857 5.76515 36.75 8.8174 36.75 12C36.75 15.1826 35.4857 18.2348 33.2353 20.4853C30.9848 22.7357 27.9326 24 24.75 24C21.5674 24 18.5152 22.7357 16.2647 20.4853C14.0143 18.2348 12.75 15.1826 12.75 12C12.75 8.8174 14.0143 5.76515 16.2647 3.51472C18.5152 1.26428 21.5674 0 24.75 0ZM24.75 6C23.1587 6 21.6326 6.63214 20.5074 7.75736C19.3821 8.88258 18.75 10.4087 18.75 12C18.75 13.5913 19.3821 15.1174 20.5074 16.2426C21.6326 17.3679 23.1587 18 24.75 18C26.3413 18 27.8674 17.3679 28.9926 16.2426C30.1179 15.1174 30.75 13.5913 30.75 12C30.75 10.4087 30.1179 8.88258 28.9926 7.75736C27.8674 6.63214 26.3413 6 24.75 6ZM24.75 27C32.76 27 48.75 30.99 48.75 39V48H0.75V39C0.75 30.99 16.74 27 24.75 27ZM24.75 32.7C15.84 32.7 6.45 37.08 6.45 39V42.3H43.05V39C43.05 37.08 33.66 32.7 24.75 32.7Z" fill="#2597D3"/>
</svg>
